<svg preserveAspectRatio="none" width="100%" height="100%" overflow="visible" style="display: block;" viewBox="0 0 12 12" fill="none" xmlns="http://www.w3.org/2000/svg">
<path id="Vector" d="M4.50549 5.99756L5.50549 6.99756L7.50549 4.99756M1.93047 4.30761C1.85749 3.97887 1.86869 3.63703 1.96305 3.31378C2.0574 2.99053 2.23184 2.69633 2.4702 2.45847C2.70856 2.22061 3.00312 2.04678 3.32657 1.9531C3.65002 1.85943 3.99188 1.84894 4.32047 1.92261C4.50132 1.63976 4.75047 1.40699 5.04494 1.24575C5.33942 1.08451 5.66974 1 6.00547 1C6.34119 1 6.67152 1.08451 6.96599 1.24575C7.26047 1.40699 7.50961 1.63976 7.69047 1.92261C8.01955 1.84862 8.362 1.85906 8.68597 1.95296C9.00993 2.04687 9.30488 2.22118 9.54339 2.45968C9.7819 2.69819 9.95621 2.99314 10.0501 3.31711C10.144 3.64107 10.1545 3.98352 10.0805 4.31261C10.3633 4.49346 10.5961 4.74261 10.7573 5.03708C10.9186 5.33156 11.0031 5.66188 11.0031 5.99761C11.0031 6.33333 10.9186 6.66366 10.7573 6.95813C10.5961 7.25261 10.3633 7.50175 10.0805 7.68261C10.1541 8.01119 10.1436 8.35306 10.05 8.6765C9.9563 8.99995 9.78247 9.29451 9.54461 9.53287C9.30675 9.77123 9.01255 9.94568 8.6893 10.04C8.36605 10.1344 8.0242 10.1456 7.69547 10.0726C7.51485 10.3565 7.26551 10.5903 6.97053 10.7523C6.67555 10.9142 6.34448 10.9991 6.00797 10.9991C5.67145 10.9991 5.34038 10.9142 5.0454 10.7523C4.75043 10.5903 4.50109 10.3565 4.32047 10.0726C3.99188 10.1463 3.65002 10.1358 3.32657 10.0421C3.00312 9.94844 2.70856 9.77461 2.4702 9.53675C2.23184 9.29889 2.0574 9.00469 1.96305 8.68144C1.86869 8.35819 1.85749 8.01634 1.93047 7.68761C1.64545 7.50723 1.41067 7.25769 1.24799 6.96221C1.08531 6.66674 1 6.33491 1 5.99761C1 5.6603 1.08531 5.32848 1.24799 5.033C1.41067 4.73752 1.64545 4.48799 1.93047 4.30761Z" stroke="var(--stroke-0, white)" stroke-width="1.25" stroke-linecap="round" stroke-linejoin="round"/>
</svg>
